<svg width="1600" height="1600" viewBox="0 0 1600 1600" fill="none" xmlns="http://www.w3.org/2000/svg">
<g filter="url(#filter0_f_26_64)">
<mask id="mask0_26_64" style="mask-type:luminance" maskUnits="userSpaceOnUse" x="500" y="500" width="600" height="600">
<path d="M1100 500H500V1100H1100V500Z" fill="white"/>
</mask>
<g mask="url(#mask0_26_64)">
<path d="M1025 500H575C533.633 500 500 533.633 500 575V912.5C500 953.867 533.633 987.5 575 987.5H687.5V1085.94C687.5 1094.26 694.297 1100 701.562 1100C704.375 1100 707.305 1099.18 709.883 1097.19L856.25 987.5H1025C1066.37 987.5 1100 953.867 1100 912.5V575C1100 533.633 1066.37 500 1025 500ZM1043.75 912.5C1043.75 922.812 1035.31 931.25 1025 931.25H837.5L822.5 942.5L743.75 1001.56V931.25H575C564.688 931.25 556.25 922.812 556.25 912.5V575C556.25 564.688 564.688 556.25 575 556.25H1025C1035.31 556.25 1043.75 564.688 1043.75 575V912.5Z" fill="black"/>
</g>
</g>
<mask id="mask1_26_64" style="mask-type:luminance" maskUnits="userSpaceOnUse" x="500" y="500" width="600" height="600">
<path d="M1100 500H500V1100H1100V500Z" fill="white"/>
</mask>
<g mask="url(#mask1_26_64)">
<path d="M1025 500H575C533.633 500 500 533.633 500 575V912.5C500 953.867 533.633 987.5 575 987.5H687.5V1085.94C687.5 1094.26 694.297 1100 701.562 1100C704.375 1100 707.305 1099.18 709.883 1097.19L856.25 987.5H1025C1066.37 987.5 1100 953.867 1100 912.5V575C1100 533.633 1066.37 500 1025 500ZM1043.75 912.5C1043.75 922.812 1035.31 931.25 1025 931.25H837.5L822.5 942.5L743.75 1001.56V931.25H575C564.688 931.25 556.25 922.812 556.25 912.5V575C556.25 564.688 564.688 556.25 575 556.25H1025C1035.31 556.25 1043.75 564.688 1043.75 575V912.5Z" fill="black"/>
</g>
<path d="M621.378 800V669.091H709.588V691.911H649.055V723.104H705.05V745.923H649.055V777.18H709.844V800H621.378ZM841.088 669.091V800H817.182L760.229 717.607H759.27V800H731.593V669.091H755.882L812.388 751.42H813.539V669.091H841.088ZM950.76 711.406C949.865 708.295 948.608 705.547 946.989 703.161C945.369 700.732 943.388 698.686 941.044 697.024C938.743 695.32 936.101 694.02 933.118 693.125C930.178 692.23 926.918 691.783 923.338 691.783C916.648 691.783 910.767 693.445 905.696 696.768C900.668 700.092 896.747 704.929 893.935 711.278C891.122 717.585 889.716 725.298 889.716 734.418C889.716 743.537 891.101 751.293 893.871 757.685C896.641 764.077 900.561 768.956 905.632 772.322C910.703 775.646 916.69 777.308 923.594 777.308C929.858 777.308 935.206 776.2 939.638 773.984C944.112 771.726 947.521 768.551 949.865 764.46C952.251 760.369 953.445 755.533 953.445 749.95L959.07 750.781H925.32V729.943H980.099V746.435C980.099 757.94 977.67 767.827 972.812 776.094C967.955 784.318 961.264 790.668 952.741 795.142C944.219 799.574 934.46 801.79 923.466 801.79C911.193 801.79 900.412 799.084 891.122 793.672C881.832 788.217 874.588 780.483 869.389 770.469C864.233 760.412 861.655 748.48 861.655 734.673C861.655 724.062 863.189 714.602 866.257 706.293C869.368 697.94 873.714 690.866 879.297 685.071C884.879 679.276 891.378 674.865 898.793 671.839C906.207 668.814 914.24 667.301 922.891 667.301C930.305 667.301 937.209 668.388 943.601 670.561C949.993 672.692 955.661 675.717 960.604 679.638C965.589 683.558 969.659 688.224 972.812 693.636C975.966 699.006 977.99 704.929 978.885 711.406H950.76Z" fill="black"/>
<defs>
<filter id="filter0_f_26_64" x="0" y="0" width="1600" height="1600" filterUnits="userSpaceOnUse" color-interpolation-filters="sRGB">
<feFlood flood-opacity="0" result="BackgroundImageFix"/>
<feBlend mode="normal" in="SourceGraphic" in2="BackgroundImageFix" result="shape"/>
<feGaussianBlur stdDeviation="250" result="effect1_foregroundBlur_26_64"/>
</filter>
</defs>
</svg>
