<svg width="1600" height="1600" viewBox="0 0 1600 1600" fill="none" xmlns="http://www.w3.org/2000/svg">
<g filter="url(#filter0_f_26_76)">
<mask id="mask0_26_76" style="mask-type:luminance" maskUnits="userSpaceOnUse" x="500" y="500" width="600" height="600">
<path d="M1100 500H500V1100H1100V500Z" fill="white"/>
</mask>
<g mask="url(#mask0_26_76)">
<path d="M1025 500H575C533.633 500 500 533.633 500 575V912.5C500 953.867 533.633 987.5 575 987.5H687.5V1085.94C687.5 1094.26 694.297 1100 701.562 1100C704.375 1100 707.305 1099.18 709.883 1097.19L856.25 987.5H1025C1066.37 987.5 1100 953.867 1100 912.5V575C1100 533.633 1066.37 500 1025 500ZM1043.75 912.5C1043.75 922.812 1035.31 931.25 1025 931.25H837.5L822.5 942.5L743.75 1001.56V931.25H575C564.688 931.25 556.25 922.812 556.25 912.5V575C556.25 564.688 564.688 556.25 575 556.25H1025C1035.31 556.25 1043.75 564.688 1043.75 575V912.5Z" fill="black"/>
</g>
</g>
<mask id="mask1_26_76" style="mask-type:luminance" maskUnits="userSpaceOnUse" x="500" y="500" width="600" height="600">
<path d="M1100 500H500V1100H1100V500Z" fill="white"/>
</mask>
<g mask="url(#mask1_26_76)">
<path d="M1025 500H575C533.633 500 500 533.633 500 575V912.5C500 953.867 533.633 987.5 575 987.5H687.5V1085.94C687.5 1094.26 694.297 1100 701.562 1100C704.375 1100 707.305 1099.18 709.883 1097.19L856.25 987.5H1025C1066.37 987.5 1100 953.867 1100 912.5V575C1100 533.633 1066.37 500 1025 500ZM1043.75 912.5C1043.75 922.812 1035.31 931.25 1025 931.25H837.5L822.5 942.5L743.75 1001.56V931.25H575C564.688 931.25 556.25 922.812 556.25 912.5V575C556.25 564.688 564.688 556.25 575 556.25H1025C1035.31 556.25 1043.75 564.688 1043.75 575V912.5Z" fill="black"/>
</g>
<path d="M708.182 711.406C707.287 708.295 706.03 705.547 704.411 703.161C702.791 700.732 700.81 698.686 698.466 697.024C696.165 695.32 693.523 694.02 690.54 693.125C687.599 692.23 684.339 691.783 680.76 691.783C674.07 691.783 668.189 693.445 663.118 696.768C658.089 700.092 654.169 704.929 651.357 711.278C648.544 717.585 647.138 725.298 647.138 734.418C647.138 743.537 648.523 751.293 651.293 757.685C654.063 764.077 657.983 768.956 663.054 772.322C668.125 775.646 674.112 777.308 681.016 777.308C687.28 777.308 692.628 776.2 697.06 773.984C701.534 771.726 704.943 768.551 707.287 764.46C709.673 760.369 710.866 755.533 710.866 749.95L716.491 750.781H682.741V729.943H737.521V746.435C737.521 757.94 735.092 767.827 730.234 776.094C725.376 784.318 718.686 790.668 710.163 795.142C701.641 799.574 691.882 801.79 680.888 801.79C668.615 801.79 657.834 799.084 648.544 793.672C639.254 788.217 632.01 780.483 626.811 770.469C621.655 760.412 619.077 748.48 619.077 734.673C619.077 724.062 620.611 714.602 623.679 706.293C626.79 697.94 631.136 690.866 636.719 685.071C642.301 679.276 648.8 674.865 656.214 671.839C663.629 668.814 671.662 667.301 680.312 667.301C687.727 667.301 694.631 668.388 701.023 670.561C707.415 672.692 713.082 675.717 718.026 679.638C723.011 683.558 727.081 688.224 730.234 693.636C733.388 699.006 735.412 704.929 736.307 711.406H708.182ZM758.311 800V669.091H846.522V691.911H785.989V723.104H841.983V745.923H785.989V777.18H846.777V800H758.311ZM868.526 800V669.091H920.174C930.06 669.091 938.498 670.859 945.487 674.396C952.518 677.891 957.866 682.855 961.531 689.29C965.238 695.682 967.092 703.203 967.092 711.854C967.092 720.547 965.217 728.026 961.467 734.29C957.717 740.511 952.283 745.284 945.167 748.608C938.093 751.932 929.528 753.594 919.471 753.594H884.89V731.349H914.996C920.281 731.349 924.67 730.625 928.164 729.176C931.658 727.727 934.258 725.554 935.962 722.656C937.71 719.759 938.583 716.158 938.583 711.854C938.583 707.507 937.71 703.842 935.962 700.859C934.258 697.876 931.637 695.618 928.1 694.084C924.606 692.507 920.195 691.719 914.869 691.719H896.204V800H868.526ZM939.222 740.426L971.758 800H941.204L909.371 740.426H939.222Z" fill="black"/>
<defs>
<filter id="filter0_f_26_76" x="0" y="0" width="1600" height="1600" filterUnits="userSpaceOnUse" color-interpolation-filters="sRGB">
<feFlood flood-opacity="0" result="BackgroundImageFix"/>
<feBlend mode="normal" in="SourceGraphic" in2="BackgroundImageFix" result="shape"/>
<feGaussianBlur stdDeviation="250" result="effect1_foregroundBlur_26_76"/>
</filter>
</defs>
</svg>
