<?xml version="1.0" standalone="no"?>
<!DOCTYPE svg PUBLIC "-//W3C//DTD SVG 20010904//EN"
 "http://www.w3.org/TR/2001/REC-SVG-20010904/DTD/svg10.dtd">
<svg version="1.0" xmlns="http://www.w3.org/2000/svg"
 width="591.000000pt" height="591.000000pt" viewBox="0 0 591.000000 591.000000"
 preserveAspectRatio="xMidYMid meet">
<metadata>
Created by potrace 1.14, written by Peter Selinger 2001-2017
</metadata>
<g transform="translate(0.000000,591.000000) scale(0.100000,-0.100000)"
fill="#000000" stroke="none">
<path d="M1078 4829 c-17 -9 -18 -109 -18 -1864 l0 -1855 203 0 c111 -1 240
-3 286 -6 46 -3 104 -3 128 1 l43 6 0 1848 c0 1778 -1 1849 -18 1864 -16 15
-53 17 -313 17 -181 0 -301 -5 -311 -11z"/>
<path d="M3480 3810 c-25 -5 -67 -12 -95 -15 -27 -4 -59 -10 -70 -15 -11 -5
-47 -16 -80 -25 -33 -9 -72 -23 -87 -31 -14 -8 -33 -14 -42 -14 -9 0 -16 -4
-16 -10 0 -5 -11 -10 -25 -10 -14 0 -25 -4 -25 -10 0 -5 -11 -12 -25 -16 -14
-3 -25 -10 -25 -15 0 -5 -8 -9 -19 -9 -10 0 -24 -7 -31 -15 -7 -8 -17 -15 -22
-15 -13 0 -128 -82 -128 -92 0 -4 -4 -8 -10 -8 -9 0 -190 -176 -190 -185 0 -3
-8 -13 -17 -23 -37 -38 -63 -72 -63 -82 0 -6 -4 -10 -9 -10 -5 0 -12 -11 -15
-25 -4 -14 -11 -25 -16 -25 -6 0 -10 -6 -10 -14 0 -17 -32 -80 -42 -84 -5 -2
-8 -9 -8 -16 0 -7 -11 -34 -25 -60 -14 -26 -25 -58 -25 -71 0 -13 -4 -26 -9
-30 -6 -3 -13 -26 -17 -50 -3 -25 -10 -48 -15 -51 -5 -3 -9 -30 -9 -60 0 -31
-5 -65 -11 -76 -15 -28 -15 -396 0 -411 6 -6 11 -37 11 -69 0 -32 4 -58 9 -58
5 0 12 -22 16 -50 4 -27 11 -52 16 -56 5 -3 9 -15 9 -27 0 -12 11 -44 25 -72
13 -27 25 -56 25 -62 0 -7 4 -13 9 -13 4 0 16 -21 26 -47 10 -27 21 -50 24
-53 4 -3 15 -18 25 -35 11 -16 25 -34 33 -38 7 -4 13 -15 13 -23 0 -16 27 -47
147 -170 44 -46 86 -84 92 -84 6 0 11 -3 11 -7 0 -5 23 -23 50 -42 28 -19 50
-38 50 -43 0 -4 7 -8 17 -8 9 0 30 -10 47 -23 17 -13 47 -29 66 -37 19 -7 42
-18 50 -25 24 -18 69 -35 94 -35 13 0 29 -6 35 -14 12 -14 30 -19 131 -36 30
-5 56 -14 58 -19 2 -7 34 -11 76 -11 40 0 77 -5 82 -10 19 -19 475 0 500 21 7
5 35 12 63 16 28 3 54 10 57 14 3 5 21 9 40 9 19 0 34 4 34 10 0 5 16 12 35
16 19 3 38 10 41 15 3 5 16 9 30 9 13 0 24 4 24 8 0 9 70 42 88 42 7 0 12 3
12 8 0 4 27 23 60 42 33 19 60 38 60 43 0 4 5 7 10 7 6 0 23 11 38 25 15 14
32 25 39 25 7 0 13 7 13 15 0 8 4 15 10 15 10 0 140 126 140 136 0 3 11 17 25
32 14 15 25 30 25 34 0 4 11 19 25 34 14 15 25 33 25 40 0 7 6 17 13 21 13 8
81 142 92 181 3 12 11 22 16 22 5 0 9 11 9 24 0 14 5 28 10 31 6 3 10 18 10
33 0 15 7 36 15 46 8 11 15 39 15 62 0 24 4 45 9 48 4 3 11 43 15 88 3 46 9
101 12 123 4 22 6 58 6 80 -2 74 -27 293 -34 301 -5 4 -8 26 -8 48 0 23 -7 50
-15 60 -8 11 -15 32 -15 47 0 15 -4 31 -10 34 -5 3 -10 17 -10 31 0 13 -4 24
-10 24 -5 0 -13 12 -16 28 -4 15 -15 41 -25 57 -10 17 -25 45 -33 62 -8 18
-26 48 -40 66 -15 19 -26 37 -26 40 0 4 -8 15 -17 25 -10 10 -27 31 -38 46
-11 16 -37 46 -57 68 -21 21 -38 43 -38 48 0 6 -6 10 -14 10 -8 0 -16 3 -18 8
-1 4 -28 28 -58 52 -30 25 -57 47 -60 50 -7 7 -43 29 -60 37 -8 4 -17 9 -20
12 -13 15 -91 61 -104 61 -7 0 -19 6 -25 14 -6 7 -36 21 -66 31 -30 9 -55 21
-55 26 0 5 -16 9 -35 9 -19 0 -35 5 -35 10 0 6 -12 10 -27 10 -16 1 -39 7 -53
15 -14 8 -45 14 -71 15 -25 0 -50 5 -56 11 -14 14 -468 22 -533 9z m405 -561
c28 -6 67 -13 88 -16 20 -3 37 -9 37 -14 0 -5 6 -9 14 -9 20 0 136 -61 136
-71 0 -5 7 -9 15 -9 8 0 15 -4 15 -10 0 -5 7 -10 15 -10 18 0 122 -105 131
-132 3 -10 10 -18 15 -18 5 0 9 -7 9 -15 0 -8 4 -15 10 -15 5 0 12 -11 16 -25
3 -14 10 -25 15 -25 5 0 9 -6 9 -12 0 -7 11 -35 25 -63 13 -27 25 -57 25 -66
0 -9 7 -33 15 -52 8 -20 15 -65 15 -100 0 -35 5 -68 11 -74 15 -15 -7 -258
-29 -318 -6 -16 -17 -52 -24 -79 -7 -27 -19 -51 -25 -53 -7 -3 -13 -16 -13
-29 0 -13 -4 -24 -9 -24 -5 0 -12 -11 -15 -25 -4 -14 -11 -25 -16 -25 -6 0
-10 -7 -10 -15 0 -8 -4 -15 -10 -15 -5 0 -10 -7 -10 -15 0 -9 -7 -18 -15 -21
-8 -4 -15 -10 -15 -16 0 -13 -26 -38 -39 -38 -6 0 -11 -7 -11 -15 0 -8 -4 -15
-8 -15 -5 0 -17 -8 -28 -18 -49 -45 -214 -132 -249 -132 -13 0 -26 -4 -29 -9
-7 -11 -131 -24 -221 -23 -129 1 -296 29 -303 51 -2 6 -15 11 -28 11 -13 0
-24 5 -24 10 0 6 -9 10 -20 10 -10 0 -23 6 -27 13 -4 7 -22 19 -40 26 -17 7
-40 24 -50 37 -10 13 -23 24 -29 24 -6 0 -17 11 -24 25 -7 14 -19 25 -27 25
-7 0 -13 5 -13 10 0 6 -11 22 -25 36 -14 14 -25 31 -25 39 0 8 -4 15 -10 15
-5 0 -10 7 -10 15 0 8 -4 15 -10 15 -5 0 -12 11 -16 25 -3 14 -10 25 -15 25
-5 0 -9 10 -9 23 0 13 -4 27 -9 32 -15 17 -41 107 -41 141 0 18 -4 36 -10 39
-6 4 -10 72 -10 171 0 103 4 164 10 164 6 0 10 22 10 49 0 28 5 53 10 56 6 3
10 14 10 23 0 9 7 30 15 46 8 15 15 35 15 44 0 8 10 29 23 46 12 17 29 44 37
60 18 35 156 182 188 199 88 49 146 77 158 77 8 0 14 5 14 10 0 6 17 10 38 10
21 0 42 4 48 9 5 5 23 11 39 14 60 8 271 6 320 -4z"/>
</g>
</svg>
